<svg xmlns="http://www.w3.org/2000/svg" viewBox="0 0 1200 630" font-family="'Chakra Petch', 'Segoe UI', system-ui, -apple-system, Arial, sans-serif">
  <defs>
    <linearGradient id="bg" x1="0" y1="0" x2="1" y2="1">
      <stop offset="0" stop-color="#08090c"/>
      <stop offset="1" stop-color="#0e131c"/>
    </linearGradient>
    <radialGradient id="glow" cx="0.8" cy="0.16" r="0.72">
      <stop offset="0" stop-color="#4a5cff" stop-opacity="0.32"/>
      <stop offset="1" stop-color="#4a5cff" stop-opacity="0"/>
    </radialGradient>
    <radialGradient id="core" cx="0.5" cy="0.5" r="0.5">
      <stop offset="0" stop-color="#9fb0ff"/>
      <stop offset="0.45" stop-color="#4a5cff"/>
      <stop offset="1" stop-color="#2a35b0"/>
    </radialGradient>
    <pattern id="grid" width="48" height="48" patternUnits="userSpaceOnUse">
      <path d="M48 0H0V48" fill="none" stroke="#4a5cff" stroke-opacity="0.05" stroke-width="1"/>
    </pattern>
  </defs>
  <rect width="1200" height="630" fill="url(#bg)"/>
  <rect width="1200" height="630" fill="url(#grid)"/>
  <rect width="1200" height="630" fill="url(#glow)"/>
  <g stroke="#4a5cff" stroke-width="3" fill="none">
    <path d="M40 74 V40 H74"/>
    <path d="M1160 556 V590 H1126"/>
  </g>
  <g stroke="#2c3650" stroke-width="3" fill="none">
    <path d="M1160 74 V40 H1126"/>
    <path d="M40 556 V590 H74"/>
  </g>
  <rect x="40" y="40" width="6" height="550" fill="#4a5cff"/>
  <g transform="translate(1006 150)">
    <g transform="translate(-90 -90)">
      <polygon points="90,10 156,48 156,124 90,162 24,124 24,48" fill="#0e1220" stroke="#2c3650" stroke-width="4" stroke-linejoin="round"/>
      <polygon points="90,10 156,48 156,124 90,162 24,124 24,48" fill="none" stroke="#4a5cff" stroke-width="1.5" stroke-linejoin="round" opacity="0.4"/>
      <circle cx="90" cy="86" r="44" fill="none" stroke="#4a5cff" stroke-width="1.6" stroke-dasharray="5 9" opacity="0.55"/>
      <circle cx="90" cy="86" r="29" fill="none" stroke="#6c8cff" stroke-width="3.4"/>
      <circle cx="90" cy="86" r="10.5" fill="url(#core)"/>
      <g stroke="#9fb0ff" stroke-width="3.4" stroke-linecap="round">
        <line x1="90" y1="43" x2="90" y2="54"/>
        <line x1="90" y1="118" x2="90" y2="129"/>
        <line x1="47" y1="86" x2="58" y2="86"/>
        <line x1="122" y1="86" x2="133" y2="86"/>
      </g>
    </g>
  </g>
  <g stroke="#1a2131" stroke-width="1" opacity="0.7">
    <line x1="84" y1="392" x2="1116" y2="392"/>
    <line x1="84" y1="496" x2="1116" y2="496"/>
  </g>
  <text x="84" y="112" fill="#e7ecf5" font-size="30" font-weight="700" letter-spacing="7">LA<tspan fill="#6c8cff">CORE</tspan></text>
  <g>
    <rect x="84" y="150" width="150" height="30" rx="5" fill="none" stroke="#2c3650"/>
    <text x="100" y="171" fill="#9fb0ff" font-size="15" font-weight="700" letter-spacing="3">RELEASE</text>
  </g>
  <text x="80" y="342" fill="#eef2f8" font-size="168" font-weight="700" letter-spacing="-4">v3.2.2</text>
  <text x="84" y="452" fill="#9fb0ff" font-size="40" font-weight="600">Automatic server registration out of the box</text>
  <text x="84" y="548" fill="#6b7689" font-size="24" font-weight="500" letter-spacing="1">lacore.netica.dev</text>
  <text x="1116" y="548" fill="#4d5872" font-size="22" font-weight="500" letter-spacing="2" text-anchor="end"></text>
</svg>
