<svg xmlns="http://www.w3.org/2000/svg" viewBox="0 0 1200 600" font-family="'Chakra Petch', 'Segoe UI', system-ui, -apple-system, Arial, sans-serif">
  <defs>
    <linearGradient id="bg" x1="0" y1="0" x2="1" y2="1"><stop offset="0" stop-color="#08090c"/><stop offset="1" stop-color="#0e131c"/></linearGradient>
    <pattern id="grid" width="48" height="48" patternUnits="userSpaceOnUse"><path d="M48 0H0V48" fill="none" stroke="#4a5cff" stroke-opacity="0.05" stroke-width="1"/></pattern>
  </defs>
  <rect width="1200" height="600" fill="url(#bg)"/><rect width="1200" height="600" fill="url(#grid)"/>
  <g stroke="#4a5cff" stroke-width="3" fill="none"><path d="M28 56 V28 H56"/><path d="M1172 544 V572 H1144"/></g>
  <text x="60" y="58" fill="#e7ecf5" font-size="24" font-weight="700" letter-spacing="4">LAPD MDT — <tspan fill="#6c8cff">EVIDENCE &amp; IMPORT TO INCIDENT</tspan></text>
  <text x="60" y="86" fill="#9fb0ff" font-size="15">Two rail sections filled from the incident: what is on file for it, and the records a unit imported.</text>

  <!-- terminal -->
  <rect x="60" y="112" width="1080" height="440" fill="#16294d" stroke="#ffffff" stroke-width="3"/>
  <rect x="72" y="124" width="200" height="380" fill="#0f1f3d" stroke="#ffffff" stroke-width="2"/>
  <g font-size="13" fill="#cfe0ff">
    <text x="90" y="152">Summary</text><text x="90" y="178">Persons (2)</text><text x="90" y="204">Vehicles (1)</text>
    <text x="90" y="230">Comments</text><text x="90" y="256">Unit Details</text><text x="90" y="282">Map</text>
    <text x="90" y="308">BOLO</text><text x="90" y="334">Cite / Charge</text>
  </g>
  <rect x="78" y="344" width="188" height="26" fill="#4ade80"/><text x="90" y="362" fill="#0f1f3d" font-size="13" font-weight="700">◈ Evidence (3)</text>
  <text x="90" y="396" fill="#cfe0ff" font-size="13">My Activity</text>

  <rect x="284" y="124" width="844" height="380" fill="#16294d" stroke="#ffffff" stroke-width="4"/>
  <text x="300" y="150" fill="#4ade80" font-size="14" font-weight="700" letter-spacing="2">EVIDENCE</text>
  <text x="300" y="176" fill="#9fb0c8" font-size="11" letter-spacing="2">EVIDENCE LOGGED ON THIS INCIDENT · 2</text>
  <g font-family="Consolas, 'Courier New', monospace" font-size="12">
    <rect x="300" y="186" width="812" height="22" fill="#0d1b36"/>
    <text x="308" y="201" fill="#9fb0c8">TAG        TYPE     NAME       DESCRIPTION                     CUSTODY</text>
    <text x="308" y="224" fill="#e7ecf5">EV-0041    Weapon   John Doe   Pistol found in glovebox        collected · 1A-12</text>
    <text x="308" y="246" fill="#e7ecf5">EV-0042    Other    John Doe   Cash, 2.300 USD, black bag      transferred · 1A-19</text>
  </g>
  <text x="300" y="282" fill="#9fb0c8" font-size="11" letter-spacing="2">SCENE EVIDENCE NEAR THIS INCIDENT · 1</text>
  <g font-family="Consolas, 'Courier New', monospace" font-size="12">
    <text x="308" y="306" fill="#e7ecf5">SC260917-1A2B   Shell casing   1A-12 16:12   in the lab …</text>
  </g>
  <text x="300" y="344" fill="#9fb0c8" font-size="11" letter-spacing="2">LOG EVIDENCE ON THIS INCIDENT</text>
  <rect x="300" y="354" width="170" height="24" fill="#0d1b36" stroke="#5a6b8c"/><text x="308" y="370" fill="#9fb0c8" font-size="11">Person (full name)</text>
  <rect x="478" y="354" width="120" height="24" fill="#0d1b36" stroke="#5a6b8c"/><text x="486" y="370" fill="#9fb0c8" font-size="11">🔫 Weapon ▾</text>
  <rect x="606" y="354" width="340" height="24" fill="#0d1b36" stroke="#5a6b8c"/><text x="614" y="370" fill="#9fb0c8" font-size="11">What was found, where, condition …</text>
  <rect x="954" y="354" width="60" height="24" fill="#1f3b73" stroke="#fff"/><text x="984" y="370" fill="#fff" font-size="11" font-weight="700" text-anchor="middle">LOG</text>

  <!-- action bar -->
  <rect x="284" y="428" width="844" height="60" fill="#0f1f3d"/>
  <g font-size="11" font-weight="700" text-anchor="middle" fill="#cfe0ff">
    <rect x="300" y="444" width="90" height="28" fill="#16294d" stroke="#5a6b8c"/><text x="345" y="462">Edit</text>
    <rect x="398" y="444" width="90" height="28" fill="#16294d" stroke="#5a6b8c"/><text x="443" y="462">Report</text>
    <rect x="496" y="444" width="90" height="28" fill="#16294d" stroke="#5a6b8c"/><text x="541" y="462">Clear</text>
    <rect x="594" y="444" width="110" height="28" fill="#16294d" stroke="#5a6b8c"/><text x="649" y="462">Primary Unit</text>
    <rect x="712" y="444" width="150" height="28" fill="#4ade80" stroke="#fff"/><text x="787" y="462" fill="#0f1f3d">Import to Incident</text>
    <rect x="870" y="444" width="90" height="28" fill="#16294d" stroke="#5a6b8c"/><text x="915" y="462">Locate</text>
  </g>
  <text x="787" y="512" fill="#9fb0c8" font-size="11" text-anchor="middle">last query result → Persons / Vehicles section of the selected incident</text>
</svg>
